<?xml version="1.0" encoding="UTF-8"?>
<svg width="127px" height="127px" viewBox="0 0 127 127" version="1.1" xmlns="http://www.w3.org/2000/svg" xmlns:xlink="http://www.w3.org/1999/xlink">
    <!-- Generator: Sketch 52.3 (67297) - http://www.bohemiancoding.com/sketch -->
    <title>Logo-rounded</title>
    <desc>Created with Sketch.</desc>
    <g id="Logo-rounded" stroke="none" stroke-width="1" fill="none" fill-rule="evenodd">
        <g id="Logo-no-blending">
            <circle id="Path" fill="#FFFFFF" cx="63.5" cy="63.5" r="63.5"></circle>
            <g id="Group" stroke-width="1" transform="translate(24.063158, 16.933333)">
                <g id="Group-9">
                    <path d="M38.7684211,59.3247696 L0.89122807,42.8555488 L0.89122807,16.9333333 L39.6596491,33.7900652 L39.6596491,33.8085637 L77.5368421,50.2777845 L77.5368421,76.2 L38.7684211,59.3432681 L38.7684211,59.3247696 Z" id="middle-red" fill="#E80000"></path>
                    <path d="M39.6596491,0 L78.4280702,16.8567319 L78.4280702,42.7789474 L39.6596491,25.9222155 L0.89122807,42.7789474 L0.89122807,16.8567319 L39.6596491,4.54747351e-13 Z" id="top-black" fill="#423E45"></path>
                    <path d="M38.7684211,93.1333333 L0,76.2766015 L0,50.354386 L38.7684211,67.2111178 L77.5368421,50.354386 L77.5368421,76.2766015 L38.7684211,93.1333333 Z" id="Combined-Shape" fill="#423E45"></path>
                </g>
                <path d="M47.6807018,50.354386 L77.5368421,63.277193 L47.6807018,76.2 L47.6807018,50.354386 Z" id="Combined-Shape" fill="#48444B" transform="translate(62.608772, 63.277193) scale(-1, 1) translate(-62.608772, -63.277193) "></path>
                <path d="M0.89122807,16.9333333 L30.7473684,29.8561404 L0.89122807,42.7789474 L0.89122807,16.9333333 Z" id="Combined-Shape" fill="#48444B"></path>
            </g>
        </g>
    </g>
</svg>