<?xml version="1.0" encoding="UTF-8"?>
<!DOCTYPE svg PUBLIC "-//W3C//DTD SVG 1.1//EN" "http://www.w3.org/Graphics/SVG/1.1/DTD/svg11.dtd">
<svg xmlns="http://www.w3.org/2000/svg" version="1.1" width="32px" height="32px" style="shape-rendering:geometricPrecision; text-rendering:geometricPrecision; image-rendering:optimizeQuality; fill-rule:evenodd; clip-rule:evenodd" xmlns:xlink="http://www.w3.org/1999/xlink">
<g><path style="opacity:1" fill="#2b3139" d="M 17.5,3.5 C 17.3893,4.11742 17.056,4.61742 16.5,5C 17.7375,5.23209 18.7375,5.73209 19.5,6.5C 19.1667,6.5 18.8333,6.5 18.5,6.5C 15.9407,6.19845 13.6074,6.53178 11.5,7.5C 11.1667,7.5 10.8333,7.5 10.5,7.5C 10.1667,7.5 9.83333,7.5 9.5,7.5C 8.89022,6.60895 8.55688,5.60895 8.5,4.5C 11.3915,3.59748 14.3915,3.26414 17.5,3.5 Z"/></g>
<g><path style="opacity:0.906" fill="#515355" d="M 17.5,3.5 C 19.698,3.12012 21.3646,3.78679 22.5,5.5C 22.5,6.16667 22.1667,6.5 21.5,6.5C 20.8333,6.5 20.1667,6.5 19.5,6.5C 18.7375,5.73209 17.7375,5.23209 16.5,5C 17.056,4.61742 17.3893,4.11742 17.5,3.5 Z"/></g>
<g><path style="opacity:1" fill="#1a1d21" d="M 8.5,4.5 C 8.55688,5.60895 8.89022,6.60895 9.5,7.5C 8.10008,8.09982 7.10008,9.09982 6.5,10.5C 6.5,9.16667 5.83333,8.5 4.5,8.5C 5.83333,7.16667 7.16667,5.83333 8.5,4.5 Z"/></g>
<g><path style="opacity:1" fill="#5883c2" d="M 11.5,7.5 C 13.6074,6.53178 15.9407,6.19845 18.5,6.5C 20.1392,7.4725 21.4726,8.80584 22.5,10.5C 21.1667,10.1667 19.8333,9.83333 18.5,9.5C 17.0813,8.54885 15.4147,8.21552 13.5,8.5C 13.1583,7.66175 12.4916,7.32842 11.5,7.5 Z"/></g>
<g><path style="opacity:0.902" fill="#323233" d="M 22.5,5.5 C 23.8717,6.51163 25.205,7.51163 26.5,8.5C 25.8333,8.5 25.1667,8.5 24.5,8.5C 23.2905,8.06795 22.2905,7.40128 21.5,6.5C 22.1667,6.5 22.5,6.16667 22.5,5.5 Z"/></g>
<g><path style="opacity:1" fill="#959de5" d="M 10.5,7.5 C 10.8333,7.5 11.1667,7.5 11.5,7.5C 12.4916,7.32842 13.1583,7.66175 13.5,8.5C 13.1667,9.5 12.5,10.1667 11.5,10.5C 10.0335,13.2583 9.36682,12.925 9.5,9.5C 9.83333,8.83333 10.1667,8.16667 10.5,7.5 Z"/></g>
<g><path style="opacity:1" fill="#295f7f" d="M 14.5,10.5 C 15.5676,9.56552 16.901,9.23219 18.5,9.5C 19.8333,9.83333 21.1667,10.1667 22.5,10.5C 25.0983,11.5278 25.0983,12.5278 22.5,13.5C 21.078,12.075 19.4113,11.075 17.5,10.5C 16.5,10.5 15.5,10.5 14.5,10.5 Z"/></g>
<g><path style="opacity:1" fill="#162a3c" d="M 18.5,6.5 C 18.8333,6.5 19.1667,6.5 19.5,6.5C 20.1667,6.5 20.8333,6.5 21.5,6.5C 22.2905,7.40128 23.2905,8.06795 24.5,8.5C 24.8925,10.2838 25.5592,11.9505 26.5,13.5C 25.5,13.8333 24.8333,14.5 24.5,15.5C 24.1667,15.5 23.8333,15.5 23.5,15.5C 23.1667,14.8333 22.8333,14.1667 22.5,13.5C 25.0983,12.5278 25.0983,11.5278 22.5,10.5C 21.4726,8.80584 20.1392,7.4725 18.5,6.5 Z"/></g>
<g><path style="opacity:1" fill="#255477" d="M 13.5,8.5 C 15.4147,8.21552 17.0813,8.54885 18.5,9.5C 16.901,9.23219 15.5676,9.56552 14.5,10.5C 13.596,11.209 13.2627,12.209 13.5,13.5C 13.5,14.1667 13.5,14.8333 13.5,15.5C 11.7868,14.3646 11.1201,12.698 11.5,10.5C 12.5,10.1667 13.1667,9.5 13.5,8.5 Z"/></g>
<g><path style="opacity:1" fill="#5b5e62" d="M 4.5,8.5 C 5.83333,8.5 6.5,9.16667 6.5,10.5C 5.66175,10.8417 5.32842,11.5084 5.5,12.5C 5.16667,12.5 4.83333,12.5 4.5,12.5C 4.16667,12.5 3.83333,12.5 3.5,12.5C 3.23219,10.901 3.56552,9.56764 4.5,8.5 Z"/></g>
<g><path style="opacity:1" fill="#48a6e2" d="M 17.5,10.5 C 19.4113,11.075 21.078,12.075 22.5,13.5C 22.8333,14.1667 23.1667,14.8333 23.5,15.5C 23.5,16.1667 23.1667,16.5 22.5,16.5C 21.8333,15.1667 20.8333,14.1667 19.5,13.5C 18.8333,12.8333 18.1667,12.1667 17.5,11.5C 17.5,11.1667 17.5,10.8333 17.5,10.5 Z"/></g>
<g><path style="opacity:1" fill="#192f48" d="M 9.5,7.5 C 9.83333,7.5 10.1667,7.5 10.5,7.5C 10.1667,8.16667 9.83333,8.83333 9.5,9.5C 8.56552,10.5676 8.23219,11.901 8.5,13.5C 8.5,14.1667 8.16667,14.5 7.5,14.5C 7.86932,12.0065 7.20266,11.3398 5.5,12.5C 5.32842,11.5084 5.66175,10.8417 6.5,10.5C 7.10008,9.09982 8.10008,8.09982 9.5,7.5 Z"/></g>
<g><path style="opacity:1" fill="#7fafe6" d="M 14.5,10.5 C 15.5,10.5 16.5,10.5 17.5,10.5C 17.5,10.8333 17.5,11.1667 17.5,11.5C 16.1667,11.5 15.5,12.1667 15.5,13.5C 15.1667,13.5 14.8333,13.5 14.5,13.5C 14.1667,13.5 13.8333,13.5 13.5,13.5C 13.2627,12.209 13.596,11.209 14.5,10.5 Z"/></g>
<g><path style="opacity:1" fill="#366890" d="M 17.5,11.5 C 18.1667,12.1667 18.8333,12.8333 19.5,13.5C 18.5084,13.3284 17.8417,13.6618 17.5,14.5C 16.8333,14.1667 16.1667,13.8333 15.5,13.5C 15.5,12.1667 16.1667,11.5 17.5,11.5 Z"/></g>
<g><path style="opacity:0.631" fill="#787879" d="M 24.5,8.5 C 25.1667,8.5 25.8333,8.5 26.5,8.5C 27.9307,11.9002 28.264,15.2336 27.5,18.5C 27.1667,18.5 26.8333,18.5 26.5,18.5C 26.5,16.8333 26.5,15.1667 26.5,13.5C 25.5592,11.9505 24.8925,10.2838 24.5,8.5 Z"/></g>
<g><path style="opacity:1" fill="#8a7bcd" d="M 9.5,9.5 C 9.36682,12.925 10.0335,13.2583 11.5,10.5C 11.1201,12.698 11.7868,14.3646 13.5,15.5C 13.5,15.8333 13.5,16.1667 13.5,16.5C 12.8333,16.5 12.5,16.8333 12.5,17.5C 10.8058,16.4726 9.4725,15.1392 8.5,13.5C 8.23219,11.901 8.56552,10.5676 9.5,9.5 Z"/></g>
<g><path style="opacity:1" fill="#324e7b" d="M 8.5,13.5 C 9.4725,15.1392 10.8058,16.4726 12.5,17.5C 13.9063,17.9731 14.573,18.9731 14.5,20.5C 14.1667,20.5 13.8333,20.5 13.5,20.5C 12.7095,19.5987 11.7095,18.9321 10.5,18.5C 9.5,17.1667 8.5,15.8333 7.5,14.5C 8.16667,14.5 8.5,14.1667 8.5,13.5 Z"/></g>
<g><path style="opacity:1" fill="#24608a" d="M 17.5,14.5 C 17.8417,13.6618 18.5084,13.3284 19.5,13.5C 20.8333,14.1667 21.8333,15.1667 22.5,16.5C 21.8333,16.5 21.5,16.8333 21.5,17.5C 21.1667,17.5 20.8333,17.5 20.5,17.5C 19.8333,16.1667 18.8333,15.1667 17.5,14.5 Z"/></g>
<g><path style="opacity:1" fill="#6d6e70" d="M 3.5,12.5 C 3.83333,12.5 4.16667,12.5 4.5,12.5C 4.5,14.8333 4.5,17.1667 4.5,19.5C 4.16667,19.5 3.83333,19.5 3.5,19.5C 2.16667,17.1667 2.16667,14.8333 3.5,12.5 Z"/></g>
<g><path style="opacity:1" fill="#061321" d="M 4.5,12.5 C 4.83333,12.5 5.16667,12.5 5.5,12.5C 5.36596,14.2915 5.69929,15.9582 6.5,17.5C 6.16667,18.1667 5.83333,18.8333 5.5,19.5C 5.16667,19.5 4.83333,19.5 4.5,19.5C 4.5,17.1667 4.5,14.8333 4.5,12.5 Z"/></g>
<g><path style="opacity:1" fill="#8f6bbe" d="M 7.5,14.5 C 8.5,15.8333 9.5,17.1667 10.5,18.5C 9.83333,18.5 9.16667,18.5 8.5,18.5C 7.83333,18.1667 7.16667,17.8333 6.5,17.5C 5.69929,15.9582 5.36596,14.2915 5.5,12.5C 7.20266,11.3398 7.86932,12.0065 7.5,14.5 Z"/></g>
<g><path style="opacity:1" fill="#2d5888" d="M 13.5,13.5 C 13.8333,13.5 14.1667,13.5 14.5,13.5C 16.4032,14.9473 18.0699,16.614 19.5,18.5C 19.5,19.1667 19.5,19.8333 19.5,20.5C 18.8333,20.5 18.5,20.8333 18.5,21.5C 18.1667,21.5 17.8333,21.5 17.5,21.5C 17.7373,20.209 17.404,19.209 16.5,18.5C 15.7095,17.5987 14.7095,16.9321 13.5,16.5C 13.5,16.1667 13.5,15.8333 13.5,15.5C 13.5,14.8333 13.5,14.1667 13.5,13.5 Z"/></g>
<g><path style="opacity:1" fill="#548cda" d="M 14.5,13.5 C 14.8333,13.5 15.1667,13.5 15.5,13.5C 16.1667,13.8333 16.8333,14.1667 17.5,14.5C 18.8333,15.1667 19.8333,16.1667 20.5,17.5C 19.8333,17.5 19.5,17.8333 19.5,18.5C 18.0699,16.614 16.4032,14.9473 14.5,13.5 Z"/></g>
<g><path style="opacity:1" fill="#6b57cc" d="M 12.5,17.5 C 12.5,16.8333 12.8333,16.5 13.5,16.5C 14.7095,16.9321 15.7095,17.5987 16.5,18.5C 15.8333,19.1667 15.1667,19.8333 14.5,20.5C 14.573,18.9731 13.9063,17.9731 12.5,17.5 Z"/></g>
<g><path style="opacity:1" fill="#091728" d="M 26.5,13.5 C 26.5,15.1667 26.5,16.8333 26.5,18.5C 25.6618,18.8417 25.3284,19.5084 25.5,20.5C 25.1667,20.5 24.8333,20.5 24.5,20.5C 24.5,18.8333 24.5,17.1667 24.5,15.5C 24.8333,14.5 25.5,13.8333 26.5,13.5 Z"/></g>
<g><path style="opacity:1" fill="#212646" d="M 6.5,17.5 C 7.16667,17.8333 7.83333,18.1667 8.5,18.5C 8.5,18.8333 8.5,19.1667 8.5,19.5C 8.5,19.8333 8.5,20.1667 8.5,20.5C 7.07546,18.9689 6.40879,19.3023 6.5,21.5C 5.66175,21.1583 5.32842,20.4916 5.5,19.5C 5.83333,18.8333 6.16667,18.1667 6.5,17.5 Z"/></g>
<g><path style="opacity:1" fill="#8650cb" d="M 8.5,19.5 C 8.5,19.1667 8.5,18.8333 8.5,18.5C 9.16667,18.5 9.83333,18.5 10.5,18.5C 11.7095,18.9321 12.7095,19.5987 13.5,20.5C 12.5084,20.3284 11.8417,20.6618 11.5,21.5C 10.5,20.8333 9.5,20.1667 8.5,19.5 Z"/></g>
<g><path style="opacity:1" fill="#4b78da" d="M 20.5,17.5 C 20.8333,17.5 21.1667,17.5 21.5,17.5C 21.5,19.1667 21.5,20.8333 21.5,22.5C 21.5,23.1667 21.1667,23.5 20.5,23.5C 20.7373,22.209 20.404,21.209 19.5,20.5C 19.5,19.8333 19.5,19.1667 19.5,18.5C 19.5,17.8333 19.8333,17.5 20.5,17.5 Z"/></g>
<g><path style="opacity:1" fill="#274c87" d="M 23.5,15.5 C 23.8333,15.5 24.1667,15.5 24.5,15.5C 24.5,17.1667 24.5,18.8333 24.5,20.5C 24.1667,20.5 23.8333,20.5 23.5,20.5C 23.631,19.7611 23.4643,19.0944 23,18.5C 22.79,20.0581 22.29,21.3915 21.5,22.5C 21.5,20.8333 21.5,19.1667 21.5,17.5C 21.5,16.8333 21.8333,16.5 22.5,16.5C 23.1667,16.5 23.5,16.1667 23.5,15.5 Z"/></g>
<g><path style="opacity:1" fill="#757678" d="M 3.5,19.5 C 3.83333,19.5 4.16667,19.5 4.5,19.5C 4.83333,19.5 5.16667,19.5 5.5,19.5C 5.32842,20.4916 5.66175,21.1583 6.5,21.5C 7.3543,23.035 7.3543,24.3684 6.5,25.5C 4.46095,24.089 3.46095,22.089 3.5,19.5 Z"/></g>
<g><path style="opacity:1" fill="#7952db" d="M 16.5,18.5 C 17.404,19.209 17.7373,20.209 17.5,21.5C 15.5,21.5 13.5,21.5 11.5,21.5C 11.8417,20.6618 12.5084,20.3284 13.5,20.5C 13.8333,20.5 14.1667,20.5 14.5,20.5C 15.1667,19.8333 15.8333,19.1667 16.5,18.5 Z"/></g>
<g><path style="opacity:0.827" fill="#696a6b" d="M 26.5,18.5 C 26.8333,18.5 27.1667,18.5 27.5,18.5C 27.8799,20.698 27.2132,22.3646 25.5,23.5C 24.375,22.6522 24.375,21.6522 25.5,20.5C 25.3284,19.5084 25.6618,18.8417 26.5,18.5 Z"/></g>
<g><path style="opacity:1" fill="#293768" d="M 8.5,19.5 C 9.5,20.1667 10.5,20.8333 11.5,21.5C 13.5,21.5 15.5,21.5 17.5,21.5C 17.8333,21.5 18.1667,21.5 18.5,21.5C 18.1667,22.1667 17.8333,22.8333 17.5,23.5C 15.5,23.5 13.5,23.5 11.5,23.5C 10.3065,22.7281 9.30646,21.7281 8.5,20.5C 8.5,20.1667 8.5,19.8333 8.5,19.5 Z"/></g>
<g><path style="opacity:1" fill="#101f31" d="M 23.5,20.5 C 23.6347,22.5542 22.968,24.2209 21.5,25.5C 20.8333,25.5 20.1667,25.5 19.5,25.5C 19.8333,24.8333 20.1667,24.1667 20.5,23.5C 21.1667,23.5 21.5,23.1667 21.5,22.5C 22.29,21.3915 22.79,20.0581 23,18.5C 23.4643,19.0944 23.631,19.7611 23.5,20.5 Z"/></g>
<g><path style="opacity:1" fill="#20242a" d="M 23.5,20.5 C 23.8333,20.5 24.1667,20.5 24.5,20.5C 24.8333,20.5 25.1667,20.5 25.5,20.5C 24.375,21.6522 24.375,22.6522 25.5,23.5C 24.8333,24.8333 23.8333,25.8333 22.5,26.5C 22.5,25.8333 22.1667,25.5 21.5,25.5C 22.968,24.2209 23.6347,22.5542 23.5,20.5 Z"/></g>
<g><path style="opacity:1" fill="#141923" d="M 6.5,21.5 C 7.83333,22.5 9.16667,23.5 10.5,24.5C 10.5,24.8333 10.5,25.1667 10.5,25.5C 9.16667,25.5 8.5,26.1667 8.5,27.5C 7.5,27.1667 6.83333,26.5 6.5,25.5C 7.3543,24.3684 7.3543,23.035 6.5,21.5 Z"/></g>
<g><path style="opacity:1" fill="#5e349c" d="M 8.5,20.5 C 9.30646,21.7281 10.3065,22.7281 11.5,23.5C 10.8333,23.5 10.5,23.8333 10.5,24.5C 9.16667,23.5 7.83333,22.5 6.5,21.5C 6.40879,19.3023 7.07546,18.9689 8.5,20.5 Z"/></g>
<g><path style="opacity:1" fill="#4f52ce" d="M 19.5,20.5 C 20.404,21.209 20.7373,22.209 20.5,23.5C 20.1667,24.1667 19.8333,24.8333 19.5,25.5C 18.5,25.5 17.5,25.5 16.5,25.5C 16.8333,24.8333 17.1667,24.1667 17.5,23.5C 17.8333,22.8333 18.1667,22.1667 18.5,21.5C 18.5,20.8333 18.8333,20.5 19.5,20.5 Z"/></g>
<g><path style="opacity:1" fill="#5838c3" d="M 11.5,23.5 C 13.5,23.5 15.5,23.5 17.5,23.5C 17.1667,24.1667 16.8333,24.8333 16.5,25.5C 15.5,25.5 14.5,25.5 13.5,25.5C 12.5,25.5 11.5,25.5 10.5,25.5C 10.5,25.1667 10.5,24.8333 10.5,24.5C 10.5,23.8333 10.8333,23.5 11.5,23.5 Z"/></g>
<g><path style="opacity:0.378" fill="#35373a" d="M 10.5,25.5 C 11.5,25.5 12.5,25.5 13.5,25.5C 13.5,26.1667 13.5,26.8333 13.5,27.5C 13.5,27.8333 13.5,28.1667 13.5,28.5C 11.7839,28.3713 10.1172,28.038 8.5,27.5C 8.5,26.1667 9.16667,25.5 10.5,25.5 Z"/></g>
<g><path style="opacity:1" fill="#8a8b8c" d="M 19.5,25.5 C 20.1667,25.5 20.8333,25.5 21.5,25.5C 22.1667,25.5 22.5,25.8333 22.5,26.5C 19.8774,28.2655 16.8774,28.9321 13.5,28.5C 13.5,28.1667 13.5,27.8333 13.5,27.5C 15.8984,27.7406 17.8984,27.0739 19.5,25.5 Z"/></g>
<g><path style="opacity:1" fill="#1e2031" d="M 13.5,25.5 C 14.5,25.5 15.5,25.5 16.5,25.5C 17.5,25.5 18.5,25.5 19.5,25.5C 17.8984,27.0739 15.8984,27.7406 13.5,27.5C 13.5,26.8333 13.5,26.1667 13.5,25.5 Z"/></g>
</svg>
